<mxfile host="app.diagrams.net" modified="2023-05-15T19:51:05.368Z" agent="Mozilla/5.0 (Windows NT 10.0; Win64; x64) AppleWebKit/537.36 (KHTML, like Gecko) Chrome/113.0.0.0 Safari/537.36" etag="TuUTue9yG2zaOX7eb_IV" version="21.3.0" type="github">
  <diagram id="C5RBs43oDa-KdzZeNtuy" name="Page-1">
    <mxGraphModel dx="880" dy="452" grid="1" gridSize="10" guides="1" tooltips="1" connect="1" arrows="1" fold="1" page="1" pageScale="1" pageWidth="827" pageHeight="1169" math="0" shadow="0">
      <root>
        <mxCell id="WIyWlLk6GJQsqaUBKTNV-0" />
        <mxCell id="WIyWlLk6GJQsqaUBKTNV-1" parent="WIyWlLk6GJQsqaUBKTNV-0" />
        <mxCell id="ZKdcgmI1wPlLltiz4ZuT-22" style="edgeStyle=orthogonalEdgeStyle;rounded=0;orthogonalLoop=1;jettySize=auto;html=1;" parent="WIyWlLk6GJQsqaUBKTNV-1" source="WIyWlLk6GJQsqaUBKTNV-3" target="ZKdcgmI1wPlLltiz4ZuT-21" edge="1">
          <mxGeometry relative="1" as="geometry" />
        </mxCell>
        <mxCell id="WIyWlLk6GJQsqaUBKTNV-3" value="Webhook" style="rounded=1;whiteSpace=wrap;html=1;fontSize=12;glass=0;strokeWidth=1;shadow=0;" parent="WIyWlLk6GJQsqaUBKTNV-1" vertex="1">
          <mxGeometry x="380" y="40" width="120" height="40" as="geometry" />
        </mxCell>
        <mxCell id="WIyWlLk6GJQsqaUBKTNV-5" value="FP" style="edgeStyle=orthogonalEdgeStyle;rounded=0;html=1;jettySize=auto;orthogonalLoop=1;fontSize=11;endArrow=block;endFill=0;endSize=8;strokeWidth=1;shadow=0;labelBackgroundColor=none;" parent="WIyWlLk6GJQsqaUBKTNV-1" source="WIyWlLk6GJQsqaUBKTNV-6" target="WIyWlLk6GJQsqaUBKTNV-7" edge="1">
          <mxGeometry y="10" relative="1" as="geometry">
            <mxPoint as="offset" />
          </mxGeometry>
        </mxCell>
        <mxCell id="ZKdcgmI1wPlLltiz4ZuT-1" value="PR&lt;br&gt;" style="edgeStyle=orthogonalEdgeStyle;rounded=0;orthogonalLoop=1;jettySize=auto;html=1;entryX=1;entryY=0.5;entryDx=0;entryDy=0;" parent="WIyWlLk6GJQsqaUBKTNV-1" source="WIyWlLk6GJQsqaUBKTNV-6" target="WIyWlLk6GJQsqaUBKTNV-12" edge="1">
          <mxGeometry x="-0.0909" y="-10" relative="1" as="geometry">
            <Array as="points">
              <mxPoint x="190" y="340" />
              <mxPoint x="190" y="340" />
            </Array>
            <mxPoint as="offset" />
          </mxGeometry>
        </mxCell>
        <mxCell id="WIyWlLk6GJQsqaUBKTNV-6" value="Situação de orcamento" style="rhombus;whiteSpace=wrap;html=1;shadow=0;fontFamily=Helvetica;fontSize=12;align=center;strokeWidth=1;spacing=6;spacingTop=-4;" parent="WIyWlLk6GJQsqaUBKTNV-1" vertex="1">
          <mxGeometry x="240" y="300" width="100" height="80" as="geometry" />
        </mxCell>
        <mxCell id="ZKdcgmI1wPlLltiz4ZuT-4" style="edgeStyle=orthogonalEdgeStyle;rounded=0;orthogonalLoop=1;jettySize=auto;html=1;" parent="WIyWlLk6GJQsqaUBKTNV-1" source="WIyWlLk6GJQsqaUBKTNV-7" target="ZKdcgmI1wPlLltiz4ZuT-3" edge="1">
          <mxGeometry relative="1" as="geometry" />
        </mxCell>
        <mxCell id="WIyWlLk6GJQsqaUBKTNV-7" value="Delay 30 min" style="rounded=1;whiteSpace=wrap;html=1;fontSize=12;glass=0;strokeWidth=1;shadow=0;" parent="WIyWlLk6GJQsqaUBKTNV-1" vertex="1">
          <mxGeometry x="460" y="320" width="120" height="40" as="geometry" />
        </mxCell>
        <mxCell id="ZKdcgmI1wPlLltiz4ZuT-6" style="edgeStyle=orthogonalEdgeStyle;rounded=0;orthogonalLoop=1;jettySize=auto;html=1;entryX=0.5;entryY=0;entryDx=0;entryDy=0;" parent="WIyWlLk6GJQsqaUBKTNV-1" source="WIyWlLk6GJQsqaUBKTNV-12" target="ZKdcgmI1wPlLltiz4ZuT-5" edge="1">
          <mxGeometry relative="1" as="geometry" />
        </mxCell>
        <mxCell id="WIyWlLk6GJQsqaUBKTNV-12" value="Get logistic operator&amp;nbsp;" style="rounded=1;whiteSpace=wrap;html=1;fontSize=12;glass=0;strokeWidth=1;shadow=0;" parent="WIyWlLk6GJQsqaUBKTNV-1" vertex="1">
          <mxGeometry x="10" y="320" width="120" height="40" as="geometry" />
        </mxCell>
        <mxCell id="ZKdcgmI1wPlLltiz4ZuT-3" value="Envio nota fiscal" style="rounded=1;whiteSpace=wrap;html=1;fontSize=12;glass=0;strokeWidth=1;shadow=0;" parent="WIyWlLk6GJQsqaUBKTNV-1" vertex="1">
          <mxGeometry x="460" y="420" width="120" height="40" as="geometry" />
        </mxCell>
        <mxCell id="ZKdcgmI1wPlLltiz4ZuT-8" style="edgeStyle=orthogonalEdgeStyle;rounded=0;orthogonalLoop=1;jettySize=auto;html=1;entryX=0.5;entryY=0;entryDx=0;entryDy=0;" parent="WIyWlLk6GJQsqaUBKTNV-1" source="ZKdcgmI1wPlLltiz4ZuT-5" target="ZKdcgmI1wPlLltiz4ZuT-7" edge="1">
          <mxGeometry relative="1" as="geometry" />
        </mxCell>
        <mxCell id="ZKdcgmI1wPlLltiz4ZuT-5" value="Get orders &lt;br&gt;products&amp;nbsp;" style="rounded=1;whiteSpace=wrap;html=1;fontSize=12;glass=0;strokeWidth=1;shadow=0;" parent="WIyWlLk6GJQsqaUBKTNV-1" vertex="1">
          <mxGeometry x="10" y="420" width="120" height="40" as="geometry" />
        </mxCell>
        <mxCell id="ZKdcgmI1wPlLltiz4ZuT-10" style="edgeStyle=orthogonalEdgeStyle;rounded=0;orthogonalLoop=1;jettySize=auto;html=1;" parent="WIyWlLk6GJQsqaUBKTNV-1" source="ZKdcgmI1wPlLltiz4ZuT-7" target="ZKdcgmI1wPlLltiz4ZuT-9" edge="1">
          <mxGeometry relative="1" as="geometry" />
        </mxCell>
        <mxCell id="ZKdcgmI1wPlLltiz4ZuT-7" value="Get shipping Corp" style="rounded=1;whiteSpace=wrap;html=1;fontSize=12;glass=0;strokeWidth=1;shadow=0;" parent="WIyWlLk6GJQsqaUBKTNV-1" vertex="1">
          <mxGeometry x="10" y="520" width="120" height="40" as="geometry" />
        </mxCell>
        <mxCell id="ZKdcgmI1wPlLltiz4ZuT-12" style="edgeStyle=orthogonalEdgeStyle;rounded=0;orthogonalLoop=1;jettySize=auto;html=1;" parent="WIyWlLk6GJQsqaUBKTNV-1" source="ZKdcgmI1wPlLltiz4ZuT-9" target="ZKdcgmI1wPlLltiz4ZuT-11" edge="1">
          <mxGeometry relative="1" as="geometry" />
        </mxCell>
        <mxCell id="ZKdcgmI1wPlLltiz4ZuT-9" value="Get customer" style="rounded=1;whiteSpace=wrap;html=1;fontSize=12;glass=0;strokeWidth=1;shadow=0;" parent="WIyWlLk6GJQsqaUBKTNV-1" vertex="1">
          <mxGeometry x="10" y="610" width="120" height="40" as="geometry" />
        </mxCell>
        <mxCell id="ZKdcgmI1wPlLltiz4ZuT-14" style="edgeStyle=orthogonalEdgeStyle;rounded=0;orthogonalLoop=1;jettySize=auto;html=1;" parent="WIyWlLk6GJQsqaUBKTNV-1" source="ZKdcgmI1wPlLltiz4ZuT-11" target="ZKdcgmI1wPlLltiz4ZuT-13" edge="1">
          <mxGeometry relative="1" as="geometry" />
        </mxCell>
        <mxCell id="ZKdcgmI1wPlLltiz4ZuT-11" value="Get address" style="rounded=1;whiteSpace=wrap;html=1;fontSize=12;glass=0;strokeWidth=1;shadow=0;" parent="WIyWlLk6GJQsqaUBKTNV-1" vertex="1">
          <mxGeometry x="10" y="710" width="120" height="40" as="geometry" />
        </mxCell>
        <mxCell id="ZKdcgmI1wPlLltiz4ZuT-16" style="edgeStyle=orthogonalEdgeStyle;rounded=0;orthogonalLoop=1;jettySize=auto;html=1;" parent="WIyWlLk6GJQsqaUBKTNV-1" source="ZKdcgmI1wPlLltiz4ZuT-13" target="ZKdcgmI1wPlLltiz4ZuT-15" edge="1">
          <mxGeometry relative="1" as="geometry" />
        </mxCell>
        <mxCell id="ZKdcgmI1wPlLltiz4ZuT-13" value="Vlidate order correios" style="rounded=1;whiteSpace=wrap;html=1;fontSize=12;glass=0;strokeWidth=1;shadow=0;" parent="WIyWlLk6GJQsqaUBKTNV-1" vertex="1">
          <mxGeometry x="10" y="820" width="120" height="40" as="geometry" />
        </mxCell>
        <mxCell id="ZKdcgmI1wPlLltiz4ZuT-18" style="edgeStyle=orthogonalEdgeStyle;rounded=0;orthogonalLoop=1;jettySize=auto;html=1;entryX=0.5;entryY=0;entryDx=0;entryDy=0;" parent="WIyWlLk6GJQsqaUBKTNV-1" source="ZKdcgmI1wPlLltiz4ZuT-15" target="ZKdcgmI1wPlLltiz4ZuT-17" edge="1">
          <mxGeometry relative="1" as="geometry" />
        </mxCell>
        <mxCell id="ZKdcgmI1wPlLltiz4ZuT-15" value="Vlidate order&amp;nbsp;" style="rounded=1;whiteSpace=wrap;html=1;fontSize=12;glass=0;strokeWidth=1;shadow=0;" parent="WIyWlLk6GJQsqaUBKTNV-1" vertex="1">
          <mxGeometry x="10" y="910" width="120" height="40" as="geometry" />
        </mxCell>
        <mxCell id="ZKdcgmI1wPlLltiz4ZuT-20" style="edgeStyle=orthogonalEdgeStyle;rounded=0;orthogonalLoop=1;jettySize=auto;html=1;entryX=0.5;entryY=0;entryDx=0;entryDy=0;" parent="WIyWlLk6GJQsqaUBKTNV-1" source="ZKdcgmI1wPlLltiz4ZuT-17" target="ZKdcgmI1wPlLltiz4ZuT-19" edge="1">
          <mxGeometry relative="1" as="geometry" />
        </mxCell>
        <mxCell id="ZKdcgmI1wPlLltiz4ZuT-17" value="envio do orcamento" style="rounded=1;whiteSpace=wrap;html=1;fontSize=12;glass=0;strokeWidth=1;shadow=0;" parent="WIyWlLk6GJQsqaUBKTNV-1" vertex="1">
          <mxGeometry x="10" y="1010" width="120" height="40" as="geometry" />
        </mxCell>
        <mxCell id="ZKdcgmI1wPlLltiz4ZuT-19" value="put xpeed no corp" style="rounded=1;whiteSpace=wrap;html=1;fontSize=12;glass=0;strokeWidth=1;shadow=0;" parent="WIyWlLk6GJQsqaUBKTNV-1" vertex="1">
          <mxGeometry x="10" y="1110" width="120" height="40" as="geometry" />
        </mxCell>
        <mxCell id="ZKdcgmI1wPlLltiz4ZuT-23" value="Sim&lt;br&gt;" style="edgeStyle=orthogonalEdgeStyle;rounded=0;orthogonalLoop=1;jettySize=auto;html=1;entryX=0.5;entryY=0;entryDx=0;entryDy=0;" parent="WIyWlLk6GJQsqaUBKTNV-1" source="ZKdcgmI1wPlLltiz4ZuT-21" target="WIyWlLk6GJQsqaUBKTNV-6" edge="1">
          <mxGeometry x="-0.3333" y="-20" relative="1" as="geometry">
            <mxPoint as="offset" />
          </mxGeometry>
        </mxCell>
        <mxCell id="ZKdcgmI1wPlLltiz4ZuT-25" value="nao&lt;br&gt;" style="edgeStyle=orthogonalEdgeStyle;rounded=0;orthogonalLoop=1;jettySize=auto;html=1;entryX=0;entryY=0.5;entryDx=0;entryDy=0;" parent="WIyWlLk6GJQsqaUBKTNV-1" source="ZKdcgmI1wPlLltiz4ZuT-21" target="ZKdcgmI1wPlLltiz4ZuT-24" edge="1">
          <mxGeometry y="10" relative="1" as="geometry">
            <mxPoint as="offset" />
          </mxGeometry>
        </mxCell>
        <mxCell id="ZKdcgmI1wPlLltiz4ZuT-21" value="é horario comercial?&lt;br&gt;" style="rhombus;whiteSpace=wrap;html=1;shadow=0;fontFamily=Helvetica;fontSize=12;align=center;strokeWidth=1;spacing=6;spacingTop=-4;" parent="WIyWlLk6GJQsqaUBKTNV-1" vertex="1">
          <mxGeometry x="390" y="120" width="100" height="80" as="geometry" />
        </mxCell>
        <mxCell id="ZKdcgmI1wPlLltiz4ZuT-24" value="armazear o job para depois&lt;br&gt;" style="rounded=1;whiteSpace=wrap;html=1;fontSize=12;glass=0;strokeWidth=1;shadow=0;" parent="WIyWlLk6GJQsqaUBKTNV-1" vertex="1">
          <mxGeometry x="670" y="140" width="120" height="40" as="geometry" />
        </mxCell>
        <mxCell id="fqEvLph4u4vMLyTzmFd7-3" style="edgeStyle=orthogonalEdgeStyle;rounded=0;orthogonalLoop=1;jettySize=auto;html=1;" edge="1" parent="WIyWlLk6GJQsqaUBKTNV-1" source="fqEvLph4u4vMLyTzmFd7-0" target="fqEvLph4u4vMLyTzmFd7-1">
          <mxGeometry relative="1" as="geometry" />
        </mxCell>
        <mxCell id="fqEvLph4u4vMLyTzmFd7-0" value="Synchronize&lt;br&gt;" style="rounded=1;whiteSpace=wrap;html=1;" vertex="1" parent="WIyWlLk6GJQsqaUBKTNV-1">
          <mxGeometry x="460" y="520" width="120" height="40" as="geometry" />
        </mxCell>
        <mxCell id="fqEvLph4u4vMLyTzmFd7-6" style="edgeStyle=orthogonalEdgeStyle;rounded=0;orthogonalLoop=1;jettySize=auto;html=1;entryX=0.5;entryY=0;entryDx=0;entryDy=0;" edge="1" parent="WIyWlLk6GJQsqaUBKTNV-1" source="fqEvLph4u4vMLyTzmFd7-1" target="fqEvLph4u4vMLyTzmFd7-5">
          <mxGeometry relative="1" as="geometry" />
        </mxCell>
        <mxCell id="fqEvLph4u4vMLyTzmFd7-1" value="Get ordens HsCorp" style="rounded=1;whiteSpace=wrap;html=1;" vertex="1" parent="WIyWlLk6GJQsqaUBKTNV-1">
          <mxGeometry x="460" y="640" width="120" height="40" as="geometry" />
        </mxCell>
        <mxCell id="fqEvLph4u4vMLyTzmFd7-2" value="A cada 15 minutos&lt;br&gt;" style="text;html=1;strokeColor=none;fillColor=none;align=center;verticalAlign=middle;whiteSpace=wrap;rounded=0;" vertex="1" parent="WIyWlLk6GJQsqaUBKTNV-1">
          <mxGeometry x="590" y="525" width="60" height="30" as="geometry" />
        </mxCell>
        <mxCell id="fqEvLph4u4vMLyTzmFd7-8" style="edgeStyle=orthogonalEdgeStyle;rounded=0;orthogonalLoop=1;jettySize=auto;html=1;" edge="1" parent="WIyWlLk6GJQsqaUBKTNV-1" source="fqEvLph4u4vMLyTzmFd7-5">
          <mxGeometry relative="1" as="geometry">
            <mxPoint x="520" y="840" as="targetPoint" />
          </mxGeometry>
        </mxCell>
        <mxCell id="fqEvLph4u4vMLyTzmFd7-5" value="Get Stats Correio" style="rounded=1;whiteSpace=wrap;html=1;" vertex="1" parent="WIyWlLk6GJQsqaUBKTNV-1">
          <mxGeometry x="460" y="740" width="120" height="40" as="geometry" />
        </mxCell>
        <mxCell id="fqEvLph4u4vMLyTzmFd7-12" style="edgeStyle=orthogonalEdgeStyle;rounded=0;orthogonalLoop=1;jettySize=auto;html=1;entryX=0;entryY=0.5;entryDx=0;entryDy=0;" edge="1" parent="WIyWlLk6GJQsqaUBKTNV-1" source="fqEvLph4u4vMLyTzmFd7-10" target="fqEvLph4u4vMLyTzmFd7-11">
          <mxGeometry relative="1" as="geometry" />
        </mxCell>
        <mxCell id="fqEvLph4u4vMLyTzmFd7-13" value="SIm&lt;br&gt;" style="edgeLabel;html=1;align=center;verticalAlign=middle;resizable=0;points=[];" vertex="1" connectable="0" parent="fqEvLph4u4vMLyTzmFd7-12">
          <mxGeometry x="-0.3" y="-1" relative="1" as="geometry">
            <mxPoint x="5" y="-11" as="offset" />
          </mxGeometry>
        </mxCell>
        <mxCell id="fqEvLph4u4vMLyTzmFd7-16" value="Nao&lt;br&gt;" style="edgeStyle=orthogonalEdgeStyle;rounded=0;orthogonalLoop=1;jettySize=auto;html=1;entryX=0.5;entryY=0;entryDx=0;entryDy=0;" edge="1" parent="WIyWlLk6GJQsqaUBKTNV-1" source="fqEvLph4u4vMLyTzmFd7-10" target="fqEvLph4u4vMLyTzmFd7-14">
          <mxGeometry y="20" relative="1" as="geometry">
            <mxPoint as="offset" />
          </mxGeometry>
        </mxCell>
        <mxCell id="fqEvLph4u4vMLyTzmFd7-10" value="Aprove stats" style="rhombus;whiteSpace=wrap;html=1;shadow=0;fontFamily=Helvetica;fontSize=12;align=center;strokeWidth=1;spacing=6;spacingTop=-4;" vertex="1" parent="WIyWlLk6GJQsqaUBKTNV-1">
          <mxGeometry x="470" y="840" width="100" height="80" as="geometry" />
        </mxCell>
        <mxCell id="fqEvLph4u4vMLyTzmFd7-11" value="Get Stats Correio" style="rounded=1;whiteSpace=wrap;html=1;" vertex="1" parent="WIyWlLk6GJQsqaUBKTNV-1">
          <mxGeometry x="670" y="860" width="120" height="40" as="geometry" />
        </mxCell>
        <mxCell id="fqEvLph4u4vMLyTzmFd7-14" value="End" style="rounded=1;whiteSpace=wrap;html=1;" vertex="1" parent="WIyWlLk6GJQsqaUBKTNV-1">
          <mxGeometry x="460" y="980" width="120" height="40" as="geometry" />
        </mxCell>
        <mxCell id="fqEvLph4u4vMLyTzmFd7-17" value="" style="endArrow=none;html=1;rounded=0;" edge="1" parent="WIyWlLk6GJQsqaUBKTNV-1">
          <mxGeometry width="50" height="50" relative="1" as="geometry">
            <mxPoint x="200" y="480" as="sourcePoint" />
            <mxPoint x="810" y="480" as="targetPoint" />
          </mxGeometry>
        </mxCell>
        <mxCell id="fqEvLph4u4vMLyTzmFd7-19" value="" style="endArrow=none;html=1;rounded=0;" edge="1" parent="WIyWlLk6GJQsqaUBKTNV-1">
          <mxGeometry width="50" height="50" relative="1" as="geometry">
            <mxPoint x="200" y="1160" as="sourcePoint" />
            <mxPoint x="200" y="480" as="targetPoint" />
          </mxGeometry>
        </mxCell>
        <mxCell id="fqEvLph4u4vMLyTzmFd7-20" value="Envio do Pedido e da Nfe&lt;br&gt;" style="text;html=1;strokeColor=none;fillColor=none;align=center;verticalAlign=middle;whiteSpace=wrap;rounded=0;" vertex="1" parent="WIyWlLk6GJQsqaUBKTNV-1">
          <mxGeometry x="30" y="50" width="150" height="30" as="geometry" />
        </mxCell>
        <mxCell id="fqEvLph4u4vMLyTzmFd7-21" value="Sincronização para verificar o status do pedido" style="text;html=1;strokeColor=none;fillColor=none;align=center;verticalAlign=middle;whiteSpace=wrap;rounded=0;" vertex="1" parent="WIyWlLk6GJQsqaUBKTNV-1">
          <mxGeometry x="210" y="495" width="150" height="30" as="geometry" />
        </mxCell>
      </root>
    </mxGraphModel>
  </diagram>
</mxfile>
